<svg width="15" height="12" viewBox="0 0 15 12" fill="none" xmlns="http://www.w3.org/2000/svg">
<path d="M13 0H1C0.175 0 -0.4925 0.675 -0.4925 1.5L-0.5 10.5C-0.5 11.325 0.175 12 1 12H13C13.825 12 14.5 11.325 14.5 10.5V1.5C14.5 0.675 13.825 0 13 0ZM12.7 3.1875L7.3975 6.5025C7.1575 6.6525 6.8425 6.6525 6.6025 6.5025L1.3 3.1875C1.2248 3.14528 1.15894 3.08825 1.10642 3.01984C1.05389 2.95143 1.0158 2.87308 0.994431 2.78953C0.973066 2.70597 0.968877 2.61895 0.982117 2.53373C0.995358 2.44851 1.02575 2.36686 1.07146 2.29373C1.11717 2.22059 1.17724 2.15749 1.24804 2.10825C1.31885 2.059 1.3989 2.02463 1.48337 2.00722C1.56784 1.98981 1.65496 1.98973 1.73947 2.00696C1.82397 2.0242 1.9041 2.0584 1.975 2.1075L7 5.25L12.025 2.1075C12.0959 2.0584 12.176 2.0242 12.2605 2.00696C12.345 1.98973 12.4322 1.98981 12.5166 2.00722C12.6011 2.02463 12.6812 2.059 12.752 2.10825C12.8228 2.15749 12.8828 2.22059 12.9285 2.29373C12.9742 2.36686 13.0046 2.44851 13.0179 2.53373C13.0311 2.61895 13.0269 2.70597 13.0056 2.78953C12.9842 2.87308 12.9461 2.95143 12.8936 3.01984C12.8411 3.08825 12.7752 3.14528 12.7 3.1875Z" fill="black"/>
</svg>
