<svg width="14" height="18" viewBox="0 0 14 18" fill="none" xmlns="http://www.w3.org/2000/svg">
<path d="M7.875 6.3H12.6875L7.875 1.35V6.3ZM1.75 0H8.75L14 5.4V16.2C14 16.6774 13.8156 17.1352 13.4874 17.4728C13.1592 17.8104 12.7141 18 12.25 18H1.75C1.28587 18 0.840752 17.8104 0.512563 17.4728C0.184374 17.1352 0 16.6774 0 16.2V1.8C0 0.801 0.77875 0 1.75 0ZM8.75 16.2V15.3C8.75 14.103 6.41375 13.5 5.25 13.5C4.08625 13.5 1.75 14.103 1.75 15.3V16.2H8.75ZM5.25 9C4.78587 9 4.34075 9.18964 4.01256 9.52721C3.68437 9.86477 3.5 10.3226 3.5 10.8C3.5 11.2774 3.68437 11.7352 4.01256 12.0728C4.34075 12.4104 4.78587 12.6 5.25 12.6C5.71413 12.6 6.15925 12.4104 6.48744 12.0728C6.81563 11.7352 7 11.2774 7 10.8C7 10.3226 6.81563 9.86477 6.48744 9.52721C6.15925 9.18964 5.71413 9 5.25 9Z" fill="#2B3127"/>
</svg>
